# xmcd
#
# Track frame offsets: 
#        150
#        13205
#        26511
#        38754
#        49444
#        60124
#        71028
#        79782
#        92184
#        104027
#        115141
#        125254
#        136252
#        147330
#        158676
#        172177
#        182806
#        194592
#        204956
#        216264
#        230097
#        239283
#        250337
#        259579
#        271288
#        281834
#        294091
#        306398
#
# Disc length: 4221 seconds
#
# Revision: 0
# Processed by: cddbd v1.5.2PL0 Copyright (c) Steve Scherf et al.
# Submitted via: ExactAudioCopyFreeDBPlugin 1.0
#
DISCID=a8107b1c
DTITLE=Faron Young - The Faron Young Collection 1951-62 [CD-1)
DYEAR=2016
DGENRE=Country
TTITLE0=Hot Rod-Shotgun Boogie
TTITLE1=Youre Just Imagination
TTITLE2=I Heard The Jukebox Playing
TTITLE3=Tattle Tale Tears
TTITLE4=Foolish Pride
TTITLE5=Saving My Tears for Tomorrow
TTITLE6=Goin' Steady
TTITLE7=Just Out Of Reach
TTITLE8=I Cant Wait For The Sun To Go Down
TTITLE9=That's What I'd Do for You
TTITLE10=I'm Gonna Tell Santa Claus On You
TTITLE11=Just Married
TTITLE12=They Made Me Fall in Love With You
TTITLE13=A Place for Girls Like You
TTITLE14=In the Chapel in the Moonlight
TTITLE15=If You Ain't Lovin You Ain't Livin
TTITLE16=If That's the Fashion
TTITLE17=Live Fast, Love Hard, Die Young
TTITLE18=Forgive Me Dear
TTITLE19=God Bless God
TTITLE20=Go Back, You Fool
TTITLE21=All Right
TTITLE22=It's a Great Life (If You Don't Weaken)
TTITLE23=For the Love of a Woman Like You
TTITLE24=I've Got Five Dollars and It's Saturday Night
TTITLE25=You're Still Mine
TTITLE26=Sweet Dreams
TTITLE27=Until I Met You
EXTD=
EXTT0=
EXTT1=
EXTT2=
EXTT3=
EXTT4=
EXTT5=
EXTT6=
EXTT7=
EXTT8=
EXTT9=
EXTT10=
EXTT11=
EXTT12=
EXTT13=
EXTT14=
EXTT15=
EXTT16=
EXTT17=
EXTT18=
EXTT19=
EXTT20=
EXTT21=
EXTT22=
EXTT23=
EXTT24=
EXTT25=
EXTT26=
EXTT27=
PLAYORDER=
